<svg xmlns="http://www.w3.org/2000/svg" version="1.1" xmlns:xlink="http://www.w3.org/1999/xlink" width="512" height="512"><svg width="512" height="512" viewBox="0 0 200 200" xmlns="http://www.w3.org/2000/svg">
  <defs>
    <linearGradient id="SvgjsLinearGradient1003" x1="0%" y1="0%" x2="0%" y2="100%">
      <stop offset="0%" style="stop-color:#FF7eb3;stop-opacity:1"></stop>
      <stop offset="100%" style="stop-color:#00bfff;stop-opacity:1"></stop>
    </linearGradient>
    
    <linearGradient id="SvgjsLinearGradient1002" x1="0%" y1="100%" x2="100%" y2="0%">
      <stop offset="0%" style="stop-color:#ff3333;stop-opacity:1"></stop>
      <stop offset="100%" style="stop-color:#FF7eb3;stop-opacity:1"></stop>
    </linearGradient>
  </defs>

  <g stroke-width="6" stroke-linecap="round">
    <line x1="80" y1="55" x2="65" y2="35" stroke="url(#antLeftGrad)"></line>
    <circle cx="65" cy="35" r="6" fill="#FF7eb3"></circle>
    
    <line x1="120" y1="55" x2="135" y2="35" stroke="#00bfff"></line>
    <circle cx="135" cy="35" r="6" fill="#00bfff"></circle>
  </g>

  <g>
    <path d="M 100 50 H 60 Q 30 50 30 80 V 140 Q 30 170 60 170 H 100 V 50 Z" fill="#FF0000"></path>
    
    <path d="M 100 50 H 140 Q 170 50 170 80 V 140 Q 170 170 140 170 H 100 V 50 Z" fill="url(#frameGradient)"></path>
  </g>

  <rect x="45" y="65" width="110" height="90" rx="22" fill="white"></rect>

  <rect x="55" y="75" width="90" height="70" rx="16" fill="#FF0000"></rect>

  <path d="M 90 95 L 90 125 L 115 110 Z" fill="white" stroke="white" stroke-width="2" stroke-linejoin="round"></path>

</svg><style>@media (prefers-color-scheme: light) { :root { filter: none; } }
@media (prefers-color-scheme: dark) { :root { filter: none; } }
</style></svg>